<?xml version="1.0" encoding="utf-8"?>
<!-- Generator: Adobe Illustrator 16.0.0, SVG Export Plug-In . SVG Version: 6.00 Build 0)  -->
<!DOCTYPE svg PUBLIC "-//W3C//DTD SVG 1.1//EN" "http://www.w3.org/Graphics/SVG/1.1/DTD/svg11.dtd">
<svg version="1.1" id="Layer_1" xmlns="http://www.w3.org/2000/svg" xmlns:xlink="http://www.w3.org/1999/xlink" x="0px" y="0px"
	 width="612px" height="577.359px" viewBox="0 107.321 612 577.359" enable-background="new 0 107.321 612 577.359"
	 xml:space="preserve">
<path fill="#FFFFFF" d="M367.2,444.498c13.856,4.619,28.868,1.155,39.26-9.237c15.012-15.012,15.012-40.416,0-55.427
	c-15.011-15.011-40.415-15.011-55.426,0l-204.385-205.54c15.011-16.166,15.011-40.415,0-55.426
	c-15.011-15.012-40.415-15.012-55.426,0c-10.393,10.392-13.856,26.558-9.238,39.26c-13.856-4.619-28.868-1.155-40.415,9.238
	c-15.011,15.011-15.011,40.415,0,55.426c13.856,13.856,35.796,15.011,50.808,3.464l206.694,206.694
	c-11.547,15.011-10.393,36.951,3.464,50.808c15.011,15.011,40.416,15.011,55.426,0C369.51,473.366,371.819,458.354,367.2,444.498z"
	/>
<g>
	<path fill="#FFFFFF" d="M415.698,635.026c-15.012-11.547-36.951-10.393-50.808,3.464c-12.702,12.702-15.012,31.178-6.929,46.189
		h114.317L612,544.959V438.725L415.698,635.026z"/>
</g>
<path fill="#FFFFFF" d="M467.66,107.321H353.344c2.309,3.464,3.464,6.928,6.928,9.238c10.393,10.393,26.559,13.856,39.261,9.238
	c-4.619,13.856-1.155,28.868,9.237,39.26c15.012,15.011,40.415,15.011,55.427,0s15.012-40.415,0-55.426L467.66,107.321z"/>
<path fill="#FFFFFF" d="M118.936,426.022c-10.393-10.393-26.559-13.856-39.261-9.237c3.464-12.702,1.155-28.868-10.392-39.261
	c-15.012-15.011-40.415-15.011-55.427,0C0,391.381-1.155,413.32,10.393,428.332L0,439.879v106.234l63.509-63.51
	c15.012,15.012,40.415,15.012,55.427,0C133.947,466.438,133.947,441.034,118.936,426.022z"/>
</svg>
